HIERARCHY
ROOT Hips
{
  OFFSET -331.093 83.8371 -317.828
  CHANNELS 6 Xposition Yposition Zposition Zrotation Xrotation Yrotation
  JOINT LeftUpLeg
  {
    OFFSET 8.64259 1.95398 -2.38835
    CHANNELS 3 Zrotation Xrotation Yrotation
    JOINT LeftLeg
    {
      OFFSET 43.7702 0 0
      CHANNELS 3 Zrotation Xrotation Yrotation
      JOINT LeftFoot
      {
        OFFSET 40.6238 0 0
        CHANNELS 3 Zrotation Xrotation Yrotation
        JOINT LeftToeBase
        {
          OFFSET 12.7242 0 0
          CHANNELS 3 Zrotation Xrotation Yrotation
          End Site
          {
            OFFSET 0 0 0
          }
        }
      }
    }
  }
  JOINT RightUpLeg
  {
    OFFSET -8.2249 1.95398 -2.59336
    CHANNELS 3 Zrotation Xrotation Yrotation
    JOINT RightLeg
    {
      OFFSET 43.5653 0 0
      CHANNELS 3 Zrotation Xrotation Yrotation
      JOINT RightFoot
      {
        OFFSET 40.6238 0 0
        CHANNELS 3 Zrotation Xrotation Yrotation
        JOINT RightToeBase
        {
          OFFSET 12.7242 0 0
          CHANNELS 3 Zrotation Xrotation Yrotation
          End Site
          {
            OFFSET 0 0 0
          }
        }
      }
    }
  }
  JOINT Spine
  {
    OFFSET 0.165834 0.87714 6.61349
    CHANNELS 3 Zrotation Xrotation Yrotation
    JOINT Spine1
    {
      OFFSET 7.38963 1.71661e-005 0
      CHANNELS 3 Zrotation Xrotation Yrotation
      JOINT Spine2
      {
        OFFSET 11.9445 1.14441e-005 0
        CHANNELS 3 Zrotation Xrotation Yrotation
        JOINT Spine3
        {
          OFFSET 14.7254 4.19617e-005 0
          CHANNELS 3 Zrotation Xrotation Yrotation
          JOINT Spine4
          {
            OFFSET 10.9679 0 0
            CHANNELS 3 Zrotation Xrotation Yrotation
            JOINT RightShoulder
            {
              OFFSET 2.46616 -1.6653 3.69651
              CHANNELS 3 Zrotation Xrotation Yrotation
              JOINT RightArm
              {
                OFFSET 13.0012 0 0
                CHANNELS 3 Zrotation Xrotation Yrotation
                JOINT RightForeArm
                {
                  OFFSET 28.7848 1.62311e-005 0
                  CHANNELS 3 Zrotation Xrotation Yrotation
                  JOINT RightHand
                  {
                    OFFSET 26.5688 1.62095e-005 0
                    CHANNELS 3 Zrotation Xrotation Yrotation
                    End Site
                    {
                      OFFSET 0 0 0
                    }
                  }
                }
              }
            }
            JOINT LeftShoulder
            {
              OFFSET 2.38034 -1.29275 -3.7523
              CHANNELS 3 Zrotation Xrotation Yrotation
              JOINT LeftArm
              {
                OFFSET 16.3182 6.07031e-005 0
                CHANNELS 3 Zrotation Xrotation Yrotation
                JOINT LeftForeArm
                {
                  OFFSET 27.0901 0 0
                  CHANNELS 3 Zrotation Xrotation Yrotation
                  JOINT LeftHand
                  {
                    OFFSET 24.5451 1.51738e-005 0
                    CHANNELS 3 Zrotation Xrotation Yrotation
                    End Site
                    {
                      OFFSET 0 0 0
                    }
                  }
                }
              }
            }
            JOINT Neck
            {
              OFFSET 5.0226 -0.0266342 0
              CHANNELS 3 Zrotation Xrotation Yrotation
              JOINT Head
              {
                OFFSET 6.69364 2.86102e-005 0
                CHANNELS 3 Zrotation Xrotation Yrotation
                End Site
                {
                  OFFSET 0 0 0
                }
              }
            }
          }
        }
      }
    }
  }
}
MOTION
Frames:	18
Frame Time:	0.0416667
1.43044 91.083 34.3887 -79.2229 -4.67357 -94.7174 -179.406 45.2641 89.2304 -26.0763 10.7935 -1.99838 60.5332 -0.565552 1.13685 44.1805 20.8516 18.3654 178.633 -7.49753 91.6771 -34.8448 -36.1206 -12.9757 62.2241 0.0914142 -0.158779 33.0423 1.15261 8.01883 0.835512 7.4022 -88.943 12.0509 2.16012 1.87102 0.380514 2.24038 1.77414 -22.1519 1.49812 2.43356 -2.13929 1.49812 2.43355 91.623 -38.43 -100.64 28.3942 -15.6847 -0.460445 -21.4631 -12.1299 -61.6175 -11.9647 -0.761851 1.5906 -94.2839 -48.0463 72.2955 -29.1441 3.26393 14.4435 10.7069 15.8601 -40.6429 8.48609 0.505469 1.89578 3.6473 -6.94343 2.08071 -6.21442 -6.97163 -6.20311 
-10.9598 90.3694 37.2948 -79.8084 -2.39364 -93.7239 -178.191 44.8993 88.22 -40.9532 12.1806 -1.346 61.4449 1.17297 4.92669 39.7999 9.29737 2.55089 -179.594 -3.58219 91.7019 -44.1777 -30.143 -11.0292 42.1825 10.7864 9.38892 23.5188 0.472286 5.31638 0.788106 7.28882 -88.8713 12.2743 2.10117 2.01706 0.603673 2.18789 1.92263 -21.9259 1.39807 2.55508 -1.91329 1.39807 2.55508 91.597 -38.5225 -100.661 31.9484 -14.2201 3.52546 -16.24 -10.1744 -57.51 -14.2248 -0.865567 1.6286 -94.208 -47.2526 72.1743 -25.5739 4.79619 10.5807 9.9446 17.336 -37.9941 8.17866 0.456699 1.55103 4.44518 -5.86965 0.42419 -7.57188 -5.56528 -6.10494 
-22.3305 92.0471 40.3563 -82.0237 -0.478497 -94.5646 -178.709 35.3692 84.9233 -42.9378 8.37888 0.135011 66.372 5.89586 7.2591 36.4071 5.17804 -1.69392 -179.376 13.985 90.6193 -66.1159 -9.90287 -6.56728 50.594 4.55411 3.27828 32.6508 -1.21838 -8.12658 0.418355 7.49469 -88.9795 11.8736 1.31246 1.89507 0.202035 1.39457 1.83548 -22.3243 0.682393 2.20177 -2.31165 0.682357 2.20175 91.6245 -38.3413 -100.66 32.1283 -14.0905 4.28472 -15.9946 -13.5231 -52.2478 -10.2654 -0.725283 2.50244 -95.6025 -47.7962 70.2433 -21.9291 6.47061 5.28396 9.25514 14.1153 -40.141 9.7035 0.513936 1.3279 3.93223 -3.3008 1.60247 -6.14687 -3.3618 -4.67706 
-33.6283 95.2208 42.6027 -82.945 1.01804 -92.2383 -176.553 21.8431 86.3512 -33.6887 9.13108 -0.964407 66.6183 6.99127 8.00371 41.705 9.44732 -0.915872 177.43 28.925 92.5712 -61.582 2.18316 -2.81854 64.1422 -2.14311 -1.51619 37.8045 -2.16862 -10.1608 0.145103 7.51823 -89.4506 11.8326 0.546976 1.0369 0.161311 0.592067 1.01182 -22.3705 0.210086 1.15333 -2.35781 0.210081 1.15332 91.5603 -39.1634 -100.555 32.002 -13.6854 7.34275 -13.4289 -14.0101 -46.8917 -9.88707 -0.682265 2.30068 -95.1381 -47 70.6904 -19.7434 6.5621 -1.03745 10.0026 10.9389 -45.0206 11.3303 0.595724 1.35013 2.13042 -0.855708 2.06751 -6.47349 -1.07642 -2.46627 
-45.4661 96.2062 43.9077 -83.3132 0.291671 -91.6753 -175.831 9.96942 85.8681 -26.2657 10.9358 -1.17764 67.0956 6.8838 7.63116 44.5441 12.7286 1.52302 175.925 33.9999 92.9145 -33.4812 4.53851 -0.278525 64.5712 -2.63286 -1.57951 36.772 -2.19017 -10.7701 -0.283043 7.47255 -89.6766 11.9301 -0.410328 0.689797 0.259049 -0.379575 0.707184 -22.2757 -0.598671 0.534588 -2.26309 -0.59868 0.534582 91.7181 -40.4673 -99.9427 31.4985 -13.7729 12.3955 -11.381 -13.2152 -45.0686 -5.95447 -0.41256 1.39787 -94.6051 -45.9838 71.1825 -16.6873 6.08938 -5.90293 10.7488 7.47975 -51.6169 11.466 0.527379 0.71659 1.4505 0.661271 1.73344 -6.73186 0.416353 -0.61447 
-58.5362 94.4801 44.3183 -85.1411 -2.16716 -92.5878 -174.679 -0.999784 87.8954 -24.0313 16.8039 -1.17751 68.822 7.5631 6.86998 43.594 15.0383 8.28306 178.304 33.6002 90.3158 -7.70341 -0.824647 -2.15016 62.163 -1.61611 -0.804189 44.4864 -2.9976 -10.4009 -0.774882 7.63967 -89.6414 11.5998 -1.37339 0.856752 -0.0707498 -1.33439 0.916358 -22.611 -1.56739 0.4043 -2.5984 -1.56739 0.4043 91.5403 -42.0619 -99.8463 31.2024 -13.5165 16.6669 -11.418 -13.9132 -44.4792 -2.80482 -0.251748 1.67292 -93.9256 -44.4243 71.7456 -13.4681 5.48012 -11.4683 10.9951 5.52194 -55.6057 11.5792 0.534272 0.733066 1.34412 1.16286 0.768083 -6.14831 1.01833 0.429916 
-73.4179 91.5989 43.6724 -87.478 -6.72747 -91.5048 -171.798 -9.06457 94.4684 -27.293 27.4408 0.222259 63.5432 4.66176 5.80813 54.4449 25.9138 9.51872 177.52 34.2302 90.2487 -13.6338 1.89822 -1.52824 62.278 -2.19944 -1.13001 43.6766 -2.90035 -10.41 -1.32575 7.70257 -89.8939 11.4822 -2.58808 0.476784 -0.186207 -2.56459 0.590293 -22.7426 -2.61165 -0.32363 -2.72999 -2.61165 -0.323643 91.9881 -42.5481 -98.976 31.5806 -13.1283 19.6631 -11.5936 -14.7247 -43.2368 -0.399861 -0.124232 1.83794 -94.1973 -44.362 71.3013 -13.2303 4.99318 -11.8471 10.4598 4.85422 -55.9869 12.52 0.557242 0.582349 1.71569 1.67014 0.996207 -8.31958 1.3853 2.00303 
-89.4719 90.3575 42.3987 -89.782 -6.16259 -88.0796 -170.592 -8.17653 100.227 -40.9798 27.041 3.13488 47.0342 -9.10085 -4.48007 36.3894 15.1982 23.0191 176.043 36.5249 95.1835 -39.0082 2.54226 -0.272502 62.1971 0.0440213 -0.0594073 36.395 -1.65957 -8.03673 -1.15838 7.71139 -90.401 11.4433 -2.49161 -0.546226 -0.225347 -2.51326 -0.435977 -22.7749 -2.21221 -1.2701 -2.76224 -2.21224 -1.27012 91.5399 -41.976 -99.8707 32.2674 -11.846 18.8457 -10.3375 -15.8703 -38.3335 0.522544 -0.0404391 3.34093 -95.3895 -46.49 70.1481 -16.3427 6.12819 -6.73895 9.26951 5.95012 -51.472 12.9779 0.632883 0.995929 2.52091 2.04905 2.36964 -10.2594 1.45796 2.6062 
-103.102 92.3843 41.3462 -91.258 -1.92042 -88.1405 -172.265 6.23386 98.6001 -62.37 21.6678 2.67026 46.6988 -9.33737 -2.28882 28.5313 4.70716 19.9222 176.77 27.7919 97.9332 -42.5822 1.2478 -1.41301 68.9769 -2.68228 -1.69775 30.1259 -0.560288 -4.09399 -0.478144 7.75459 -90.3323 11.3618 -1.1062 -0.550024 -0.308791 -1.12935 -0.500804 -22.8455 -0.889764 -0.857059 -2.83281 -0.889782 -0.857067 91.1705 -40.3354 -100.919 33.8656 -12.2462 13.8825 -10.5688 -15.1536 -39.8579 -0.935196 -0.136691 3.73242 -96.5277 -48.227 69.0034 -19.4444 8.0634 -3.18024 7.93112 10.406 -41.927 13.708 0.794286 1.8877 2.0994 1.44183 2.82773 -10.7774 0.848895 1.73556 
-115.894 95.723 40.6255 -90.994 0.734465 -90.1123 -172.895 19.9267 92.4892 -59.8567 17.8938 0.308307 53.6804 -4.52444 0.269591 37.4246 13.4379 17.9695 177.421 15.3366 97.2069 -34.7585 -1.16509 -3.69715 70.4697 -3.06153 -1.9291 32.9297 -0.67197 -3.86498 -0.0420464 7.5967 -90.021 11.6805 -0.093439 -0.0321067 0.0095234 -0.094804 -0.027967 -22.5256 -0.0794972 -0.0587119 -2.513 -0.0794869 -0.0587096 91.5885 -39.275 -100.475 33.957 -12.6823 10.5482 -13.3716 -11.1141 -51.5165 -6.09826 -0.447711 2.35609 -96.4287 -48.7018 69.3058 -24.1164 8.02128 3.25957 7.40707 16.2795 -34.7135 14.1494 1.18433 4.39402 0.780846 1.21343 2.89893 -11.0858 0.697621 1.02077 
-128.197 96.9571 40.2769 -90.3816 4.85524 -90.924 -174.917 24.3508 90.3381 -31.489 8.53528 -1.54361 59.6903 -0.43349 -0.91312 39.1183 17.4648 22.474 176.157 4.53038 95.7874 -28.5457 -7.17706 -4.38554 71.0586 -3.77285 -2.21047 35.0452 -0.794947 -3.95378 0.409401 7.49018 -89.8705 11.8926 0.8752 0.164803 0.221956 0.881526 0.126135 -22.3151 0.785171 0.420228 -2.30248 0.785172 0.420225 92.13 -37.4935 -99.9893 32.2709 -13.1942 5.88382 -14.4996 -6.42 -62.8504 -10.3563 -0.546599 0.322771 -95.5916 -48.7011 70.544 -27.8507 7.68289 10.7116 7.21753 20.0029 -32.0945 9.68009 0.719489 3.30057 1.10475 1.47628 3.69149 -10.7446 0.907876 0.0416655 
-140.403 95.4957 40.4549 -89.2442 9.54411 -89.4373 -178.691 26.7817 92.7447 -4.51799 4.52927 -0.678162 61.1644 2.51745 3.2643 42.8576 22.2458 23.3171 175.024 -3.03899 94.4642 -26.0125 -12.4645 -4.78169 74.1982 -6.62472 -3.3829 38.6575 -1.12833 -4.49195 0.836501 7.40591 -89.996 12.0637 1.66491 -0.174577 0.393802 1.6556 -0.247702 -22.1496 1.6404 0.334013 -2.13698 1.64038 0.334002 92.2364 -35.1904 -100.416 29.5109 -12.236 -0.815551 -15.9263 -4.5705 -69.1771 -9.75889 -0.466797 -0.314801 -95.3835 -49.2361 71.0171 -30.2848 7.58374 16.2874 7.91589 23.5712 -31.8522 7.51492 0.538569 2.92044 2.2759 2.23413 4.91546 -10.5295 1.47518 -0.61918 
-154.663 92.9411 40.689 -90.3069 12.8153 -89.397 -177.79 28.9734 91.7629 -11.2459 2.92503 -1.46937 62.0268 1.28206 -0.016961 42.5407 20.3689 20.7526 174.75 -8.27745 91.4159 -34.355 -16.9903 -7.64149 70.3472 -4.79474 -2.8805 51.8711 -1.59679 -3.77942 1.16706 7.42017 -89.8378 12.0343 2.39681 0.0627012 0.365554 2.39721 -0.0429109 -22.1858 2.26712 0.780519 -2.17317 2.26712 0.780518 91.9506 -35.3309 -100.902 28.7039 -10.6111 -1.9762 -16.6807 -5.10753 -68.8442 -12.7771 -0.675038 0.58649 -94.5621 -49.3136 72.2536 -30.7863 5.87637 18.3862 7.66263 25.4283 -30.0222 6.94418 0.564374 3.65023 2.56624 2.52535 3.95235 -11.7721 1.94464 -0.983839 
-170.236 91.7574 41.345 -91.6058 11.3844 -93.3209 -176.426 29.3989 85.2678 -27.7286 9.63349 -2.80908 56.5527 -2.08315 2.91542 35.2419 6.80548 6.13706 173.876 -2.56973 83.9955 -53.1704 -16.421 -8.16683 47.5804 6.91331 5.3072 40.9234 -0.0182962 0.864412 0.899508 7.33297 -89.2352 12.1954 2.15026 1.28699 0.52573 2.20478 1.19108 -22.0137 1.66407 1.87373 -2.00106 1.6641 1.87373 91.7551 -37.2464 -100.725 30.7858 -11.2894 2.12861 -14.718 -6.7172 -61.6454 -13.4583 -0.833596 1.8408 -95.3161 -49.428 71.1749 -29.5564 5.36314 18.1931 6.09506 23.5328 -28.1324 7.67507 0.656176 4.10879 1.91764 2.48031 2.19705 -13.1627 2.23238 -1.17602 
-183.132 93.4647 41.8314 -93.1533 9.46856 -92.8374 -176.251 21.9926 83.0731 -32.4716 10.4803 -2.70001 61.1018 1.73815 5.82907 33.8337 3.20573 -2.00025 177.784 11.392 85.4779 -70.2445 -1.42548 -6.12587 43.8961 6.29112 5.33507 26.5838 -1.04956 -10.0817 0.550654 7.48423 -89.2867 11.9002 1.43091 1.26894 0.229422 1.48535 1.20473 -22.3041 0.983427 1.64026 -2.29149 0.983434 1.64026 91.5677 -38.1444 -100.814 32.9626 -13.0673 4.85532 -12.5296 -10.5839 -50.3422 -7.54137 -0.535607 2.45693 -96.2471 -49.4894 69.8253 -27.3044 6.75586 11.2962 6.23729 20.2867 -30.0089 9.40553 0.784587 4.04865 1.21884 2.90739 3.02952 -12.8616 2.53933 -1.13678 
-195.544 96.2305 41.8388 -92.707 4.03326 -90.8021 -177.601 11.5918 83.9956 -27.0529 14.129 -1.06746 63.108 3.05718 5.63871 33.9746 3.66119 -0.783247 177.028 21.5954 89.3676 -63.7877 2.70922 -3.87214 56.3961 1.08559 0.631784 32.8995 -1.47359 -9.08424 -0.0384364 7.40915 -89.7138 12.0541 0.0590826 0.565622 0.38302 0.0839269 0.562467 -22.1512 -0.11365 0.55723 -2.13854 -0.113657 0.557229 91.3976 -39.7771 -100.674 34.0491 -13.8683 10.5131 -11.7639 -14.6591 -43.4064 -1.13044 -0.157115 2.8966 -96.155 -48.7212 69.7161 -24.7883 9.9185 4.32958 8.12251 14.2234 -38.8561 13.7835 1.18672 4.63045 -0.282111 2.98975 2.6579 -13.361 2.54462 0.640832 
-206.947 96.557 41.2748 -90.6392 -1.2173 -90.1261 -177.083 5.20982 85.5428 -24.863 18.4542 -0.760093 66.0529 4.60177 4.86677 35.5451 5.84595 2.47172 176.151 24.6033 90.0666 -34.1976 2.88789 -2.1855 61.5881 -1.66243 -0.963532 39.1327 -2.43082 -10.5923 -0.534267 7.27967 -89.8005 12.3167 -0.96686 0.507414 0.645935 -0.943583 0.54947 -21.8918 -1.07465 0.193352 -1.87916 -1.07467 0.193344 91.3651 -42.1737 -100.115 34.8683 -13.0905 16.8542 -10.204 -14.8851 -40.4164 0.201625 -0.0615947 3.23992 -94.9778 -46.662 70.8269 -20.9495 11.9822 -3.0001 10.4919 8.44558 -50.1926 15.3105 1.18018 3.78967 -0.505795 2.53131 1.00072 -12.4952 2.2131 1.85513 
-219.153 94.6661 40.7167 -89.8912 -4.54596 -91.5542 -176.202 -1.58683 85.6953 -25.8515 22.7263 -0.643432 68.5943 8.08764 6.87649 40.6142 10.1234 2.96188 175.437 25.0556 89.0387 -6.54785 0.783049 -1.9763 64.2767 -2.0195 -1.06004 48.8098 -4.00802 -12.0602 -0.868123 7.33036 -89.6979 12.2193 -1.58228 0.779715 0.548994 -1.54642 0.848601 -21.9935 -1.74347 0.267999 -1.98088 -1.74344 0.268006 91.5494 -43.0236 -99.5959 36.0495 -12.1317 20.7264 -10.2644 -15.4787 -39.1974 1.8932 0.0600441 3.50762 -93.8209 -45.2674 72.168 -16.4383 11.7928 -10.3725 12.3088 5.36595 -57.8308 16.4202 1.27865 3.8899 -0.108432 2.26971 0.146651 -12.0984 1.99677 2.71024 
